<svg fill="#000000" xmlns="http://www.w3.org/2000/svg"  viewBox="0 0 64 64" width="64px" height="64px"><line x1="10.395" x2="12.371" y1="35.186" y2="35.494" fill="none" stroke="#000000" stroke-linecap="round" stroke-miterlimit="10" stroke-width="2"/><line x1="11.402" x2="13.328" y1="30.578" y2="31.118" fill="none" stroke="#000000" stroke-linecap="round" stroke-miterlimit="10" stroke-width="2"/><line x1="12.888" x2="14.756" y1="26.128" y2="26.843" fill="none" stroke="#000000" stroke-linecap="round" stroke-miterlimit="10" stroke-width="2"/><line x1="14.73" x2="16.538" y1="21.831" y2="22.686" fill="none" stroke="#000000" stroke-linecap="round" stroke-miterlimit="10" stroke-width="2"/><line x1="16.867" x2="18.614" y1="17.682" y2="18.656" fill="none" stroke="#000000" stroke-linecap="round" stroke-miterlimit="10" stroke-width="2"/><path fill="none" stroke="#000000" stroke-linecap="round" stroke-linejoin="round" stroke-miterlimit="10" stroke-width="2" d="M19.611,15c1.291-2.061,2.523-3.79,3.521-5.058C26.568,5.576,29.35,4,32.025,4s5.457,1.576,8.893,5.942 c5.674,7.208,18.762,29.225,7.905,42.583c-0.823,1.012-2.743,3.147-6.341,4.979c-6.535,3.329-14.354,3.329-20.886-0.006 c-3.597-1.837-5.544-3.975-6.37-4.973c-3.256-3.936-4.383-8.651-4.209-13.525"/><path fill="none" stroke="#000000" stroke-linecap="round" stroke-linejoin="round" stroke-miterlimit="10" stroke-width="2" d="M35,27.592c-0.843-0.44-1.832-0.963-3-1.592c0,0,0,0,0,0"/><path fill="none" stroke="#000000" stroke-linecap="round" stroke-linejoin="round" stroke-miterlimit="10" stroke-width="2" d="M27.751,24c-2.75-1.546-3.282-2.145-3.515-3c-0.773-2.831,2.084-7.07,6.218-8c3.087-0.695,6.381,0.569,8.291,3 c2.818,3.586,1.121,7.799,1.036,8c-2.418-1-4.836-2-7.254-3c-0.95-1.033-0.779-2.443,0-3c0.534-0.382,1.359-0.367,2.073,0 c-0.167-0.302-1.486-2.605-4.145-3c-2.631-0.391-4.531,1.39-5.182,2c-2.182,2.046-3.02,5.35-2.073,8 c0.705,1.973,2.057,3.191,5.182,5c5.182,3,5.855,2.538,8.291,5c1.178,1.191,3.177,3.211,3.109,6c-0.075,3.091-2.658,6.411-6.218,7 c-0.473,0.078-4.149,0.626-6.218-2c-1.511-1.917-1.544-4.739,0-7c-0.085,1.391,0.798,2.632,2.073,3 c1.155,0.333,2.469-0.102,3.109-1c0.631-0.886,0.437-2.151,0-3c-1.234-2.398-4.535-1.722-8.291-4c-2.078-1.261-3.383-2.872-4.145-4 c-0.839,1.648-1.975,4.437-2.073,8c-0.056,2.052-0.223,7.961,4.145,12c4.857,4.49,13.257,4.955,18.654,1 c0.55-0.403,4.781-3.607,5.182-9c0.449-6.049-4.267-10.196-5.182-11c-0.268-0.235-0.498-0.421-0.743-0.592 c-0.305-0.213-0.742-0.496-1.329-0.763"/></svg>